<svg xmlns="http://www.w3.org/2000/svg" width="39" height="42" viewBox="0 0 39 42">
    <path fill="none" fill-rule="evenodd" stroke="#FF5274" stroke-linecap="round" stroke-linejoin="round" stroke-width="2" d="M27.422 20.633C27.422 9.791 23.736 1 19.19 1c-4.547 0-8.233 8.79-8.233 19.633s3.686 19.634 8.233 19.634c4.547 0 8.233-8.791 8.233-19.634zm-12.35-7.13C5.682 18.925-.818 26.512 1.456 30.45c2.273 3.938 12.459 2.735 21.85-2.687 9.39-5.42 15.89-13.008 13.616-16.946-2.273-3.938-12.459-2.735-21.85 2.686zm0 14.26c9.391 5.422 19.577 6.625 21.85 2.687 2.274-3.938-4.225-11.525-13.616-16.947-9.391-5.421-19.577-6.624-21.85-2.686-2.274 3.938 4.225 11.525 13.616 16.946zm6.65-7.13a2.533 2.533 0 1 1-5.067 0 2.533 2.533 0 0 1 5.067 0z"/>
</svg>
