<svg xmlns="http://www.w3.org/2000/svg" width="31" height="38" viewBox="0 0 31 38">
    <path fill="none" fill-rule="evenodd" stroke="#FF5274" stroke-linecap="round" stroke-linejoin="round" stroke-width="2" d="M9.752 1.803h10-10zm19.004 30.473l-6.893-11.028v-.001l-.1-.14c-.527-.754-3.122-5.2-3.122-9.026V4.026h-7.778v8.055c0 4.067-2.83 9.149-2.84 9.166L1.86 32.276c-1.77 2.49-.719 3.972 2.337 3.972h22.222c3.055 0 4.107-1.482 2.337-3.972zm-20.8-10.28c1.046.596 2.004 1.244 4.084 1.244 3.856 0 3.856-2.222 7.711-2.222.881 0 1.562.116 2.133.296l-13.928.682z"/>
</svg>
