<svg xmlns="http://www.w3.org/2000/svg" width="29" height="42" viewBox="0 0 29 42">
    <path fill="none" fill-rule="evenodd" stroke="#FF5274" stroke-linecap="round" stroke-linejoin="round" stroke-width="2" d="M13.807 29l5.34 1.256s.948.335.948-.83c0 0-.01.483 0-.103.019-1.401.263-2.035 2.798-4.778.006-.006.01.007.016 0 2.273-1.909 4.818-4.931 4.818-10.181C27.727 6.25 21.1 1 14.364 1 7.523 1 1 6.41 1 14.364c0 5.09 2.545 8.272 4.819 10.181.005.007.01-.006.015 0 2.535 2.743 2.778 3.377 2.799 4.778.008.586 0 .676 0 .676 0 .69-.15 1.305.64 1.546l10.301 2.267M9.273 34.964l10.182 2.309m-9.546 1.326l8.273 1.856"/>
</svg>
