<svg xmlns="http://www.w3.org/2000/svg" width="42" height="42" viewBox="0 0 42 42">
    <g fill="none" fill-rule="evenodd">
        <path stroke="#FF5274" stroke-linecap="round" stroke-linejoin="round" stroke-width="2" d="M31.605 23.205l8.571 8.61c.53.535.43 1.495-.1 2.027l-6.39 6.497c-.53.535-1.782.779-2.556 0 0 0-3.291-3.539-8.088-8.359m-12.938-13a554.408 554.408 0 0 0-8.37-8.254c-.53-.533-.878-1.685 0-2.568l6.39-6.422c.53-.533 1.571-.989 2.556 0 0 0 3.19 3.648 8.157 8.64m10.615 27.721l4.873-4.897m-8.654.99l2.264-2.274M3.863 12.438l4.9-4.923m-1.037 8.749l2.315-2.327"/>
        <path d="M5.134 28.404l21.983-22.09 8.601 8.644-21.842 22.095L1.095 40.88z"/>
        <path stroke="#FF5274" stroke-linecap="round" stroke-linejoin="round" stroke-width="2" d="M5.134 28.404l21.983-22.09 8.601 8.644-21.842 22.095L1.095 40.88z"/>
        <path stroke="#FF5274" stroke-linecap="round" stroke-linejoin="round" stroke-width="2" d="M35.682 14.958l4.78-4.802c.527-.53.527-1.391 0-1.921l-6.69-6.723a1.348 1.348 0 0 0-1.912 0l-4.78 4.803"/>
        <path stroke="#FF5274" stroke-linejoin="round" stroke-width="2" d="M33.351 12.615L12.598 33.2l1.103 3.845m-8.603-8.641l3.71.846L29.33 8.574"/>
        <path stroke="#FF5274" stroke-linecap="round" stroke-linejoin="round" stroke-width="2" d="M8.763 29.348V33.2h3.835"/>
    </g>
</svg>
