<svg xmlns="http://www.w3.org/2000/svg" width="41" height="37" viewBox="0 0 41 37">
    <path fill="none" fill-rule="evenodd" stroke="#FF5274" stroke-linecap="round" stroke-linejoin="round" stroke-width="2" d="M1 35.444c1.529-5.703 8.896-6.16 10.496-6.855 2.833-1.229 3.867-3.142 4.183-4.792-1.766-1.525-3.198-3.788-4.078-6.253-1.238-1.346-1.973-2.82-1.973-4.036 0-.862.376-1.438 1.033-1.83.253-5.926 4.501-10.647 9.73-10.675.016 0 .031-.003.048-.003.041 0 .081.007.122.007 5.261.074 9.515 4.896 9.666 10.902.45.38.707.891.707 1.599 0 1.033-.535 2.253-1.453 3.423-.893 2.828-2.518 5.452-4.558 7.093.316 1.65 1.35 3.563 4.184 4.793 1.6.694 8.966.924 10.495 6.627"/>
</svg>
